<?xml version="1.0" standalone="no"?>
<!DOCTYPE svg PUBLIC "-//W3C//DTD SVG 20010904//EN"
 "http://www.w3.org/TR/2001/REC-SVG-20010904/DTD/svg10.dtd">
<svg version="1.0" xmlns="http://www.w3.org/2000/svg"
 width="500.000000pt" height="500.000000pt" viewBox="0 0 500.000000 500.000000"
 preserveAspectRatio="xMidYMid meet">
<metadata>
Created by potrace 1.14, written by Peter Selinger 2001-2017
</metadata>
<g transform="translate(0.000000,500.000000) scale(0.100000,-0.100000)"
fill="#000000" stroke="none">
<path d="M2176 4648 c-3 -13 -6 -98 -6 -190 l0 -168 105 0 c98 0 105 1 105 20
0 18 -7 20 -80 20 l-80 0 -2 167 c-3 145 -5 168 -19 171 -10 2 -19 -6 -23 -20z"/>
<path d="M1951 4641 c-52 -9 -96 -21 -98 -27 -3 -10 54 -355 60 -360 1 -2 34
3 72 10 39 8 87 16 108 20 22 4 37 13 37 21 0 23 -12 24 -90 9 -41 -8 -78 -14
-81 -14 -8 0 -15 27 -24 91 l-7 46 49 7 c83 12 91 16 86 36 -5 20 -9 20 -105
0 -35 -7 -37 -6 -42 21 -4 16 -9 42 -12 58 -6 33 -7 32 97 51 58 10 66 14 62
31 -3 10 -8 18 -12 18 -3 -1 -48 -9 -100 -18z"/>
<path d="M2644 4608 c-45 -11 -69 -43 -69 -90 0 -37 6 -45 68 -102 73 -66 84
-97 47 -131 -28 -25 -85 -14 -125 25 -17 16 -36 30 -42 30 -25 0 -24 -23 3
-52 53 -56 126 -73 184 -43 37 19 50 43 50 91 0 34 -7 45 -70 104 -39 36 -70
73 -70 82 0 50 79 64 128 23 35 -29 68 -25 51 6 -23 43 -100 72 -155 57z"/>
<path d="M1724 4586 c-3 -8 -1 -74 5 -147 18 -216 25 -211 -89 -59 -55 73
-102 135 -104 137 -2 3 -14 0 -25 -6 -19 -11 -14 -20 101 -165 116 -147 123
-153 146 -143 l24 11 -6 166 c-4 91 -9 177 -12 193 -6 28 -31 37 -40 13z"/>
<path d="M2850 4369 c-45 -88 -79 -166 -76 -174 11 -29 36 -14 61 36 20 39 35
54 68 68 23 10 44 17 46 15 2 -2 7 -51 10 -110 5 -97 8 -108 29 -122 l23 -15
-7 136 -7 136 82 37 c77 35 81 38 60 49 -19 11 -35 6 -113 -27 -152 -67 -142
-69 -96 22 22 44 40 82 40 84 0 3 -8 10 -19 15 -16 9 -27 -7 -101 -150z"/>
<path d="M1328 4409 c-24 -14 -23 -22 20 -212 22 -92 37 -167 35 -167 -3 0
-38 10 -79 22 -68 19 -74 23 -67 42 26 72 -21 148 -91 148 -41 0 -59 -10 -131
-75 -49 -43 -49 -44 -32 -68 9 -13 66 -76 126 -139 103 -108 111 -114 127 -98
16 15 13 20 -37 73 l-53 56 25 24 24 24 78 -24 c95 -30 95 -30 130 -2 l29 23
-15 56 -15 57 61 36 60 36 31 -29 c54 -49 59 -52 79 -37 17 12 5 25 -132 139
-82 69 -151 126 -153 126 -2 0 -11 -5 -20 -11z m116 -191 c-25 -16 -47 -28
-49 -26 -4 5 -45 157 -45 169 0 6 32 -18 70 -52 l71 -63 -47 -28z m-264 -38
c32 -32 26 -75 -18 -122 l-39 -41 -44 48 c-24 26 -45 51 -47 55 -1 4 15 23 38
44 45 41 80 46 110 16z"/>
<path d="M3217 4318 c-32 -43 -170 -239 -181 -257 -6 -9 -3 -18 9 -27 16 -12
28 1 126 138 82 116 106 155 97 165 -16 19 -25 16 -51 -19z"/>
<path d="M3314 4177 c-38 -40 -96 -101 -129 -135 l-60 -64 80 -73 c62 -57 82
-71 93 -63 10 9 0 24 -49 74 l-62 62 46 48 45 48 55 -47 c43 -37 57 -44 66
-34 8 10 -1 25 -39 62 l-50 49 42 43 42 43 58 -57 c53 -52 59 -56 74 -42 14
14 8 23 -64 87 l-79 71 -69 -72z"/>
<path d="M2190 4164 c-265 -21 -480 -95 -700 -240 -302 -199 -523 -533 -597
-902 -32 -158 -23 -405 22 -608 6 -25 19 -27 244 -45 456 -34 1039 70 1536
275 321 133 652 337 843 520 l77 74 -59 113 c-33 63 -84 152 -115 199 -70 107
-260 299 -363 368 -162 109 -354 188 -548 226 -79 15 -263 26 -340 20z m-332
-588 c33 -17 65 -51 85 -92 14 -27 23 -32 65 -38 80 -10 138 -61 172 -151 l10
-25 -435 0 -435 0 0 27 c0 40 37 109 77 142 45 37 110 55 171 48 46 -5 49 -4
76 29 16 20 42 44 60 55 37 23 115 25 154 5z m696 -519 c17 -19 43 -37 57 -40
32 -8 82 -53 76 -70 -3 -9 -54 -11 -213 -9 -115 2 -210 5 -212 7 -2 2 4 17 12
34 20 38 69 64 108 59 20 -3 33 1 41 12 35 49 89 52 131 7z"/>
<path d="M4385 4100 c-32 -6 -53 -22 -105 -77 -36 -38 -73 -73 -83 -76 -9 -4
-99 9 -200 28 -310 60 -328 47 -103 -78 82 -46 154 -90 159 -99 8 -12 -4 -38
-53 -114 -97 -152 -85 -144 -208 -144 -120 0 -126 -8 -41 -56 52 -29 54 -32
52 -68 -2 -33 0 -37 15 -30 42 18 60 10 99 -45 21 -30 43 -54 48 -53 12 3 12
78 1 144 -8 45 -6 48 25 80 78 77 192 169 208 166 9 -2 62 -72 117 -156 56
-85 105 -154 110 -154 5 0 13 13 17 29 6 21 -5 70 -48 212 -31 101 -53 192
-50 202 4 10 29 40 56 66 69 65 86 97 91 168 l3 60 -35 2 c-19 0 -53 -2 -75
-7z"/>
<path d="M821 3939 c-84 -118 -87 -124 -66 -133 11 -4 25 8 47 39 20 28 36 41
42 36 77 -58 257 -181 264 -181 20 0 23 34 5 48 -10 7 -69 49 -130 94 -62 44
-113 84 -113 89 0 6 12 26 26 45 24 31 27 64 6 64 -5 0 -41 -46 -81 -101z"/>
<path d="M3525 3955 c-28 -27 -32 -71 -14 -156 13 -61 2 -95 -35 -105 -48 -12
-93 37 -98 108 -3 31 -23 51 -40 41 -30 -17 23 -147 71 -176 36 -21 89 -22
117 -2 39 27 47 64 31 148 -17 88 -8 120 34 125 33 4 70 -36 78 -85 4 -25 12
-39 24 -41 14 -3 17 4 17 33 0 107 -119 177 -185 110z"/>
<path d="M3604 3003 c-20 -43 -69 -130 -109 -194 -389 -626 -1021 -1108 -1930
-1471 -55 -22 -103 -43 -107 -47 -10 -9 260 -397 273 -393 6 1 8 -1 5 -6 -6
-10 35 -70 56 -84 7 -4 10 -8 5 -8 -6 0 87 -127 104 -140 3 -3 11 -15 18 -28
7 -12 17 -20 23 -16 7 4 8 3 4 -4 -4 -7 4 -23 18 -37 15 -14 26 -30 26 -36 0
-5 15 -18 33 -29 17 -11 25 -20 17 -20 -21 0 34 -53 57 -55 23 -2 29 50 8 59
-29 11 -14 26 25 26 34 0 43 5 72 43 30 39 36 42 73 39 22 -2 43 -9 47 -15 6
-9 12 -9 28 0 11 7 29 13 39 13 12 0 34 19 55 46 l35 45 3 -28 3 -28 20 23
c21 24 55 30 55 10 0 -10 2 -10 9 0 4 8 12 13 17 11 5 -1 14 7 19 19 10 19 11
19 28 -9 15 -26 15 -30 1 -36 -8 -3 -18 -3 -21 1 -4 3 -1 6 6 6 7 0 9 4 6 10
-3 6 -11 10 -16 10 -6 0 -8 -4 -5 -9 4 -5 0 -12 -6 -14 -10 -4 -10 -6 -1 -6 9
-1 10 -8 3 -25 -5 -13 -6 -27 -2 -32 4 -4 1 -4 -6 0 -7 4 -10 12 -7 17 4 5 0
9 -7 9 -10 0 -10 2 1 9 9 6 10 11 2 15 -6 4 -11 4 -12 -1 0 -4 -2 -16 -4 -25
-2 -10 1 -18 6 -18 4 0 6 -8 3 -17 -4 -14 -3 -15 4 -5 5 8 12 13 16 12 9 -1
76 85 76 98 0 5 10 17 23 26 l22 16 -26 -10 c-27 -9 -39 -5 -39 13 0 5 6 7 13
4 8 -3 20 -1 28 4 10 6 8 9 -11 10 -18 1 -20 3 -7 6 10 3 24 0 31 -6 9 -8 25
7 64 59 28 39 47 70 42 70 -12 0 -5 33 8 38 7 2 12 -1 12 -8 0 -6 -5 -8 -12
-4 -7 4 -8 3 -4 -4 10 -17 12 -16 34 20 16 24 18 35 9 41 -8 6 -7 7 4 4 18 -6
22 -2 132 161 43 63 74 119 71 125 -4 7 -4 9 1 5 16 -15 224 331 345 575 134
268 220 513 257 727 13 76 15 134 10 291 -8 264 -14 275 -73 152z m-695 -1957
c-3 -3 -11 5 -18 17 -13 21 -12 21 5 5 10 -10 16 -20 13 -22z m-79 -66 c13 -8
13 -11 1 -22 -9 -8 -12 -9 -7 -1 3 6 -2 16 -11 22 -10 6 -13 10 -8 11 6 0 17
-5 25 -10z m-80 -174 c0 -2 -8 -10 -17 -17 -16 -13 -17 -12 -4 4 13 16 21 21
21 13z m-102 -51 c-9 -9 -30 14 -23 25 6 9 10 8 17 -4 6 -10 8 -19 6 -21z
m-69 -32 c1 -7 -3 -13 -9 -13 -5 0 -10 15 -9 33 0 27 2 29 9 12 5 -11 9 -26 9
-32z m-684 27 c3 -5 1 -10 -4 -10 -6 0 -11 5 -11 10 0 6 2 10 4 10 3 0 8 -4
11 -10z m-4 -43 c-10 -9 -11 -8 -5 6 3 10 9 15 12 12 3 -3 0 -11 -7 -18z m767
-32 c-3 -3 -9 2 -12 12 -6 14 -5 15 5 6 7 -7 10 -15 7 -18z m-661 -39 c-5 -14
-37 -21 -37 -7 0 6 8 7 18 4 15 -6 15 -5 3 10 -12 15 -12 17 3 11 9 -4 15 -12
13 -18z m53 4 c0 -5 -5 -10 -11 -10 -5 0 -7 5 -4 10 3 6 8 10 11 10 2 0 4 -4
4 -10z m580 -4 c0 -3 -4 -8 -10 -11 -5 -3 -10 -1 -10 4 0 6 5 11 10 11 6 0 10
-2 10 -4z m-550 -36 c0 -11 -2 -20 -5 -20 -2 0 -9 9 -15 20 -9 16 -8 20 5 20
8 0 15 -9 15 -20z m-86 -18 c3 -5 -1 -9 -9 -9 -8 0 -12 4 -9 9 3 4 7 8 9 8 2
0 6 -4 9 -8z m81 -62 c-3 -5 -13 -10 -21 -10 -8 0 -12 5 -9 10 3 6 13 10 21
10 8 0 12 -4 9 -10z m1 -49 c-4 -5 0 -12 6 -14 8 -4 9 -6 2 -6 -6 -1 -17 6
-24 14 -10 12 -9 15 4 15 10 0 15 -4 12 -9z"/>
<path d="M2550 547 c0 -13 -54 -50 -62 -42 -3 3 -5 -1 -5 -9 0 -7 10 -12 21
-12 12 1 20 7 19 14 -2 6 6 16 16 21 21 12 36 41 21 41 -6 0 -10 -6 -10 -13z"/>
<path d="M2180 510 c0 -5 7 -10 15 -10 8 0 15 5 15 10 0 6 -7 10 -15 10 -8 0
-15 -4 -15 -10z"/>
<path d="M2463 433 c-21 -28 -21 -28 -38 -8 -16 20 -16 20 -5 -2 8 -17 8 -23
0 -23 -6 0 -8 -4 -5 -10 3 -5 11 -10 17 -10 6 0 8 3 5 7 -4 3 2 12 13 20 18
12 46 53 37 53 -2 0 -13 -12 -24 -27z"/>
<path d="M2125 419 c-4 -6 -14 -8 -22 -4 -13 4 -14 3 -4 -9 7 -8 22 -13 34
-11 21 4 21 3 4 -9 -12 -9 -14 -16 -8 -21 6 -3 11 -3 11 2 0 4 5 1 10 -7 7
-11 8 -7 6 15 -2 16 -8 31 -15 33 -6 2 -9 8 -5 13 3 5 3 9 0 9 -3 0 -8 -5 -11
-11z"/>
<path d="M2203 325 c0 -8 4 -12 9 -9 5 3 6 10 3 15 -9 13 -12 11 -12 -6z"/>
<path d="M2320 336 c0 -2 8 -10 18 -17 15 -13 16 -12 3 4 -13 16 -21 21 -21
13z"/>
<path d="M2196 292 c5 -4 12 -11 15 -15 3 -5 9 -2 12 5 3 9 -3 14 -15 15 -11
1 -16 -1 -12 -5z"/>
<path d="M2236 251 c-8 -13 18 -31 31 -23 9 6 6 11 -7 20 -10 6 -21 8 -24 3z"/>
<path d="M2295 239 c-4 -6 -5 -12 -2 -15 2 -3 7 2 10 11 7 17 1 20 -8 4z"/>
</g>
</svg>
